<svg width="127" height="127" viewBox="0 0 127 127" fill="none" xmlns="http://www.w3.org/2000/svg">
<path d="M127 0H0V127H127V0Z" fill="#A43040"/>
<path d="M86.3108 73.364L92.4759 67.5072C76.755 51.478 50.8618 51.1698 34.5244 67.1989L40.3812 73.364C53.3278 60.4174 73.9807 60.4174 86.3108 73.364Z" fill="white"/>
<path d="M78.2962 81.0702L84.153 75.5217C72.7477 64.1164 54.2525 63.8081 42.8472 75.2134L48.3957 81.0702C56.7185 72.7474 70.2816 72.7474 78.2962 81.0702Z" fill="white"/>
<path d="M71.2065 88.16L75.8303 83.5362C69.0487 76.4464 57.6434 76.4464 50.8618 83.228L55.4856 87.8518C59.8011 83.8445 66.8909 83.8445 71.2065 88.16Z" fill="white"/>
<path d="M99.874 109.121H25.8934C24.0439 109.121 22.1944 107.58 22.1944 105.422V71.2063H11.4056C9.86431 71.2063 8.6313 70.2815 8.0148 69.0485C7.39829 67.8155 7.70654 65.966 8.93955 65.0412L60.726 16.3374C61.959 15.1043 64.1167 15.1043 65.658 16.3374L118.061 65.0412C119.294 65.966 119.602 67.5073 118.986 69.0485C118.369 70.5898 117.136 71.2063 115.595 71.2063H103.265V105.422C103.573 107.272 101.724 109.121 99.874 109.121ZM29.5925 101.723H96.175V67.5073C96.175 65.3495 97.7162 63.8082 99.874 63.8082H106.347L63.192 23.7354L20.6531 63.8082H26.2017C28.0512 63.8082 29.9007 65.3495 29.9007 67.5073V101.723H29.5925Z" fill="white"/>
</svg>
