<svg width="127" height="127" viewBox="0 0 127 127" fill="none" xmlns="http://www.w3.org/2000/svg">
<path d="M127 0H0V127H127V0Z" fill="#A43040"/>
<path d="M64.4246 17.5703C47.7789 17.5703 34.2158 33.2912 34.2158 49.9368C34.2158 74.2888 64.4246 104.497 64.4246 104.497C64.4246 104.497 94.6333 74.2888 94.6333 49.9368C94.6333 33.5994 81.0702 17.5703 64.4246 17.5703ZM64.4246 61.9587C56.7182 61.9587 50.2449 55.7936 50.2449 47.7791C50.2449 40.0727 56.41 33.5994 64.4246 33.5994C72.1309 33.5994 78.6042 39.7645 78.6042 47.7791C78.6042 55.7936 72.1309 61.9587 64.4246 61.9587Z" fill="white"/>
</svg>
