<svg width="200" height="28" viewBox="0 0 200 28" fill="none" xmlns="http://www.w3.org/2000/svg">
<path fill-rule="evenodd" clip-rule="evenodd" d="M50.1831 16.8559V0H54.6472L65.846 10.1982L76.8523 0H81.278V16.8559H76.1596V6.42679C76.1596 6.00346 76.2366 5.42621 76.352 4.61805C75.7748 5.46469 75.313 6.04195 74.9666 6.3883L66.0384 14.8162H64.9224L55.9557 6.34982C55.3014 5.73408 54.8396 5.15682 54.5318 4.61805C54.6087 5.31076 54.6857 5.88801 54.6857 6.42679V16.8559H50.1831Z" fill="white"/>
<path fill-rule="evenodd" clip-rule="evenodd" d="M116.645 16.933V0.0771484H122.186V13.7774H140.004V16.933H116.645Z" fill="white"/>
<path fill-rule="evenodd" clip-rule="evenodd" d="M142.351 16.933V0.0771484H162.747C166.326 0.0771484 168.097 1.15469 168.097 3.34827V7.11967C168.097 9.31325 166.326 10.3908 162.747 10.3908H147.816V16.933H142.351ZM160.246 3.00191H147.816V7.46603H160.246C161.093 7.46603 161.708 7.38906 162.055 7.27361C162.517 7.08119 162.747 6.69635 162.747 6.1191V4.31036C162.747 3.7331 162.517 3.34827 162.055 3.15585C161.708 3.0404 161.131 3.00191 160.246 3.00191Z" fill="white"/>
<path fill-rule="evenodd" clip-rule="evenodd" d="M176.256 13.777H194.535V3.07848H176.256V13.777ZM170.714 4.07906C170.714 2.50123 171.137 1.46217 171.945 0.923393C172.792 0.384621 174.331 0.115234 176.602 0.115234H194.112C196.383 0.115234 197.922 0.384621 198.769 0.923393C199.577 1.46217 200 2.53971 200 4.07906V12.9688C200 14.5466 199.577 15.5857 198.769 16.1245C197.922 16.6632 196.383 16.9326 194.112 16.9326H176.602C174.331 16.9326 172.792 16.6632 171.945 16.1245C171.099 15.5857 170.714 14.5082 170.714 12.9688V4.07906V4.07906Z" fill="white"/>
<path d="M8.19704 0.153809H0V16.7788H8.19704V0.153809Z" fill="white"/>
<path d="M22.0128 0.153809H10.0059V16.7788H22.0128V0.153809Z" fill="white"/>
<path d="M46.45 0.153809H24.7837V16.7788H46.45V0.153809Z" fill="white"/>
<path fill-rule="evenodd" clip-rule="evenodd" d="M83.625 16.9715L96.4401 0.0771484H101.52L114.45 16.9715H108.562L98.7876 3.2713L88.8973 16.9715H83.625Z" fill="white"/>
<path d="M6.11845 23.8213H2.73188V26.6307H6.11845V25.6686L7.38841 25.8995V26.4382C7.38841 26.8616 7.31144 27.1309 7.11902 27.2464C6.9266 27.4003 6.58025 27.4773 6.04148 27.4773H2.80885C2.27007 27.4773 1.92372 27.4003 1.7313 27.2464C1.53888 27.0925 1.46191 26.8231 1.46191 26.4382V24.0907C1.46191 23.7059 1.53888 23.398 1.7313 23.2826C1.92372 23.0902 2.27007 23.0132 2.80885 23.0132H6.04148C6.58025 23.0132 6.9266 23.0902 7.11902 23.2441C7.31144 23.398 7.38841 23.6674 7.38841 24.0522V24.4756L6.11845 24.6295V23.8213V23.8213Z" fill="white"/>
<path d="M9.85156 24.0908C9.85156 23.706 9.92853 23.3981 10.1209 23.2827C10.3134 23.1287 10.6597 23.0518 11.1985 23.0518H15.2008C15.7396 23.0518 16.0859 23.1287 16.2783 23.2827C16.4708 23.4366 16.5477 23.706 16.5477 24.0908V26.4383C16.5477 26.8616 16.4708 27.131 16.2783 27.2465C16.0859 27.4004 15.7396 27.4774 15.2008 27.4774H11.1985C10.6597 27.4774 10.3134 27.4004 10.1209 27.2465C9.92853 27.0926 9.85156 26.8232 9.85156 26.4383V24.0908ZM11.1215 26.6307H15.2778V23.8214H11.1215V26.6307Z" fill="white"/>
<path d="M19.1646 27.4773V23.0132H20.0112L23.8211 25.6301C23.9365 25.707 24.052 25.784 24.1674 25.861C24.2829 25.9379 24.3599 26.0149 24.4368 26.0919C24.3983 25.861 24.3983 25.6686 24.3983 25.5531C24.3983 25.4377 24.3983 25.3607 24.3983 25.3222V23.0132H25.5144V27.4388H24.6677L20.7039 24.7065C20.6269 24.6295 20.5115 24.591 20.4345 24.514C20.3575 24.4371 20.2806 24.3986 20.2421 24.3601C20.2421 24.514 20.2806 24.6295 20.2806 24.745C20.2806 24.8604 20.2806 24.9759 20.2806 25.0528V27.4388H19.1646V27.4773Z" fill="white"/>
<path d="M33.0189 23.8215H29.4784V24.7836H32.8649C33.4037 24.7836 33.7501 24.8606 33.9425 25.0145C34.1349 25.1685 34.2119 25.4378 34.2119 25.8227V26.4384C34.2119 26.8233 34.1349 27.1311 33.9425 27.2466C33.7501 27.4005 33.4037 27.4775 32.8649 27.4775H29.5169C28.9781 27.4775 28.6317 27.4005 28.4393 27.2466C28.2469 27.0926 28.1699 26.8233 28.1699 26.4384V26.323L29.286 26.1305V26.6693H33.0958V25.6687H29.7093C29.1705 25.6687 28.8241 25.5918 28.6317 25.4378C28.4393 25.2839 28.3623 25.0145 28.3623 24.6297V24.1294C28.3623 23.7446 28.4393 23.4367 28.6317 23.3212C28.8241 23.1673 29.1705 23.0903 29.7093 23.0903H32.788C33.2883 23.0903 33.6346 23.1673 33.827 23.3212C34.0195 23.4752 34.1349 23.7061 34.1349 24.0909V24.1679L33.0189 24.3988V23.8215Z" fill="white"/>
<path d="M39.33 23.8213V27.4388H38.06V23.8213H35.5586V23.0132H41.793V23.8213H39.33Z" fill="white"/>
<path d="M43.3706 27.4773V23.0132H47.9887C48.412 23.0132 48.7198 23.0902 48.9123 23.2056C49.1047 23.3595 49.2201 23.552 49.2201 23.8598V24.8989C49.2201 25.2068 49.1432 25.3992 48.9123 25.5531C48.7198 25.707 48.412 25.7455 47.9887 25.7455H47.2959L49.7974 27.4003H47.9887L45.7951 25.784H44.6021V27.4388H43.3706V27.4773ZM47.4114 23.7829H44.5636V25.0143H47.4114C47.6423 25.0143 47.7962 24.9759 47.8732 24.9374C47.9502 24.8989 47.9887 24.7834 47.9887 24.668V24.1292C47.9887 24.0138 47.9502 23.8983 47.8732 23.8598C47.7962 23.8213 47.6423 23.7829 47.4114 23.7829Z" fill="white"/>
<path d="M53.0302 23.0132V26.5922H56.6092V23.0132H57.8792V26.3998C57.8792 26.8231 57.8022 27.0925 57.6098 27.2079C57.4174 27.3618 57.071 27.4388 56.5322 27.4388H53.1072C52.5684 27.4388 52.2221 27.3618 52.0296 27.2079C51.8372 27.054 51.7603 26.7846 51.7603 26.3998V23.0132H53.0302Z" fill="white"/>
<path d="M65.1912 23.8214H61.8046V26.6307H65.1912V25.6687L66.4612 25.8996V26.4383C66.4612 26.8616 66.3842 27.131 66.1918 27.2465C65.9994 27.4004 65.653 27.4774 65.1142 27.4774H61.8816C61.3428 27.4774 60.9965 27.4004 60.8041 27.2465C60.6116 27.0926 60.5347 26.8232 60.5347 26.4383V24.0908C60.5347 23.706 60.6116 23.3981 60.8041 23.2827C60.9965 23.1287 61.3428 23.0518 61.8816 23.0518H65.1142C65.653 23.0518 65.9994 23.1287 66.1918 23.2827C66.3842 23.4366 66.4612 23.706 66.4612 24.0908V24.5141L65.1912 24.6681V23.8214Z" fill="white"/>
<path d="M71.579 23.8213V27.4388H70.3091V23.8213H67.8076V23.0132H74.042V23.8213H71.579Z" fill="white"/>
<path d="M75.5048 24.0908C75.5048 23.706 75.5818 23.3981 75.7742 23.2827C75.9666 23.1287 76.3129 23.0518 76.8517 23.0518H80.8155C81.3543 23.0518 81.7007 23.1287 81.8931 23.2827C82.0855 23.4366 82.1625 23.706 82.1625 24.0908V26.4383C82.1625 26.8616 82.0855 27.131 81.8931 27.2465C81.7007 27.4004 81.3543 27.4774 80.8155 27.4774H76.8132C76.2745 27.4774 75.9281 27.4004 75.7357 27.2465C75.5433 27.0926 75.4663 26.8232 75.4663 26.4383V24.0908H75.5048ZM76.7363 26.6307H80.8925V23.8214H76.7363V26.6307Z" fill="white"/>
<path d="M84.8179 27.4773V23.0132H89.4359C89.8592 23.0132 90.1671 23.0902 90.3595 23.2056C90.552 23.3595 90.6674 23.552 90.6674 23.8598V24.8989C90.6674 25.2068 90.5904 25.3992 90.3595 25.5531C90.1671 25.707 89.8592 25.7455 89.4359 25.7455H88.7432L91.2447 27.4003H89.4359L87.2423 25.7455H86.0494V27.4003H84.8179V27.4773ZM88.8971 23.7829H86.0494V25.0143H88.8971C89.1281 25.0143 89.282 24.9759 89.359 24.9374C89.4359 24.8989 89.4744 24.7834 89.4744 24.668V24.1292C89.4744 24.0138 89.4359 23.8983 89.359 23.8598C89.2435 23.8213 89.0896 23.7829 88.8971 23.7829Z" fill="white"/>
<path d="M91.8218 27.4774L94.9005 23.0518H96.132L99.2491 27.4774H97.8252L97.171 26.5153H93.746L93.1302 27.4774H91.8218ZM94.2462 25.7071H96.6322L95.4777 23.8984L94.2462 25.7071Z" fill="white"/>
<path d="M105.022 27.4773V23.0132H110.564V23.7829H106.292V24.7834H108.793V25.5531H106.292V26.6691H110.641V27.5158H105.022V27.4773Z" fill="white"/>
<path d="M116.99 27.4773V23.0132H118.26V27.4388H116.99V27.4773Z" fill="white"/>
<path d="M120.992 27.4773V23.0132H121.839L125.649 25.6301C125.764 25.707 125.88 25.784 125.995 25.861C126.111 25.9379 126.187 26.0149 126.264 26.0919C126.226 25.861 126.226 25.6686 126.226 25.5531C126.226 25.4377 126.226 25.3607 126.226 25.3222V23.0132H127.342V27.4388H126.495L122.532 24.7065C122.455 24.6295 122.339 24.591 122.262 24.514C122.185 24.4371 122.108 24.3986 122.07 24.3601C122.07 24.514 122.108 24.6295 122.108 24.745C122.108 24.8604 122.108 24.9759 122.108 25.0528V27.4388H120.992V27.4773Z" fill="white"/>
<path d="M130.113 27.4773V23.0132H131.114L133.654 25.707L136.155 23.0132H137.156V27.4388H136.001V24.7065C136.001 24.668 136.001 24.591 136.001 24.514C136.001 24.4371 136.04 24.3601 136.04 24.2447C135.963 24.3601 135.924 24.4371 135.847 24.514C135.77 24.591 135.732 24.668 135.693 24.7065L133.654 26.9H133.384L131.345 24.668C131.268 24.591 131.191 24.514 131.152 24.4371C131.114 24.3601 131.075 24.2831 131.037 24.2062C131.037 24.2831 131.037 24.3986 131.075 24.4756C131.075 24.5525 131.075 24.6295 131.075 24.7065V27.4388H130.113V27.4773Z" fill="white"/>
<path d="M139.734 24.0908C139.734 23.706 139.811 23.3981 140.003 23.2827C140.196 23.1287 140.542 23.0518 141.081 23.0518H145.083C145.622 23.0518 145.968 23.1287 146.161 23.2827C146.353 23.4366 146.43 23.706 146.43 24.0908V26.4383C146.43 26.8616 146.353 27.131 146.161 27.2465C145.968 27.4004 145.622 27.4774 145.083 27.4774H141.081C140.542 27.4774 140.196 27.4004 140.003 27.2465C139.811 27.0926 139.734 26.8232 139.734 26.4383V24.0908ZM141.004 26.6307H145.16V23.8214H141.004V26.6307Z" fill="white"/>
<path d="M149.047 27.4773V23.0132H153.704C154.127 23.0132 154.435 23.0902 154.628 23.2056C154.82 23.3595 154.897 23.552 154.897 23.8598V24.3986C154.897 24.6295 154.82 24.7834 154.666 24.8989C154.512 25.0143 154.281 25.0913 153.973 25.1298C154.281 25.1683 154.512 25.2452 154.704 25.3992C154.858 25.5531 154.974 25.7455 154.974 25.9764V26.5537C154.974 26.8616 154.858 27.054 154.589 27.2079C154.32 27.3618 153.935 27.4388 153.396 27.4388H149.047V27.4773ZM153.165 23.7444H150.279V24.7834H153.165C153.396 24.7834 153.55 24.745 153.627 24.7065C153.704 24.668 153.742 24.591 153.742 24.4756V24.0522C153.742 23.9368 153.704 23.8598 153.627 23.8213C153.55 23.7829 153.396 23.7444 153.165 23.7444ZM153.165 25.5531H150.279V26.6691H153.165C153.396 26.6691 153.55 26.6307 153.665 26.5922C153.781 26.5537 153.781 26.4382 153.781 26.2843V25.9379C153.781 25.784 153.742 25.6686 153.665 25.6301C153.588 25.5916 153.396 25.5531 153.165 25.5531Z" fill="white"/>
<path d="M157.398 27.4773V23.0132H158.668V27.4388H157.398V27.4773Z" fill="white"/>
<path d="M161.4 27.4773V23.0132H162.67V26.5922H166.75V27.4388H161.4V27.4773Z" fill="white"/>
<path d="M168.559 27.4773V23.0132H169.829V27.4388H168.559V27.4773Z" fill="white"/>
<path d="M171.56 27.4774L174.639 23.0518H175.87L178.987 27.4774H177.564L176.909 26.5153H173.484L172.869 27.4774H171.56ZM173.985 25.7071H176.371L175.216 23.8984L173.985 25.7071Z" fill="white"/>
<path d="M180.681 27.4773V23.0132H185.299C185.722 23.0132 186.03 23.0902 186.222 23.2056C186.415 23.3595 186.53 23.552 186.53 23.8598V24.8989C186.53 25.2068 186.453 25.3992 186.222 25.5531C186.03 25.707 185.722 25.7455 185.299 25.7455H184.606L187.107 27.4003H185.299L183.105 25.7455H181.912V27.4003H180.681V27.4773ZM184.76 23.7829H181.912V25.0143H184.76C184.991 25.0143 185.145 24.9759 185.222 24.9374C185.299 24.8989 185.337 24.7834 185.337 24.668V24.1292C185.337 24.0138 185.299 23.8983 185.222 23.8598C185.145 23.8213 184.991 23.7829 184.76 23.7829Z" fill="white"/>
<path d="M189.109 27.4773V23.0132H190.379V27.4388H189.109V27.4773Z" fill="white"/>
<path d="M192.11 27.4774L195.189 23.0518H196.421L199.538 27.4774H198.114L197.46 26.5153H194.035L193.419 27.4774H192.11ZM194.535 25.7071H196.921L195.766 23.8984L194.535 25.7071Z" fill="white"/>
</svg>
