<svg width="250" height="37" viewBox="0 0 250 37" fill="none" xmlns="http://www.w3.org/2000/svg">
<g clip-path="url(#clip0_120_35)">
<path fill-rule="evenodd" clip-rule="evenodd" d="M62.6992 21.0769V0H68.2784L82.3592 12.7524L95.9971 0H101.488V21.0769H95.1115V8.0588C95.1115 7.52745 95.2001 6.81899 95.3772 5.84485C94.6688 6.90755 94.0488 7.61601 93.6061 8.0588L82.4477 18.5087H81.0308L69.961 7.97025C69.164 7.17322 68.5441 6.46475 68.1898 5.84485C68.2784 6.73043 68.3669 7.4389 68.3669 8.0588V21.0769H62.6992V21.0769Z" fill="#414640"/>
<path fill-rule="evenodd" clip-rule="evenodd" d="M145.767 21.1654V0.088562H152.675V17.1803H174.991V21.1654H145.767Z" fill="#414640"/>
<path fill-rule="evenodd" clip-rule="evenodd" d="M177.914 21.1654V0.088562H203.418C207.846 0.088562 210.06 1.41694 210.06 4.16224V8.85583C210.06 11.6011 207.846 12.9295 203.418 12.9295H184.733V21.1654H177.914ZM200.319 3.71945H184.733V9.29862H200.319C201.382 9.29862 202.179 9.21006 202.533 9.03295C203.064 8.76727 203.418 8.32448 203.418 7.61602V5.40206C203.418 4.69359 203.153 4.2508 202.533 3.98513C202.09 3.80801 201.382 3.71945 200.319 3.71945Z" fill="#414640"/>
<path fill-rule="evenodd" clip-rule="evenodd" d="M220.244 17.1803H243.093V3.89656H220.244V17.1803ZM213.337 5.04782C213.337 3.09954 213.868 1.77117 214.931 1.0627C215.994 0.354233 217.942 0 220.776 0H242.65C245.484 0 247.432 0.354233 248.495 1.0627C249.557 1.77117 250.089 3.09954 250.089 5.04782V16.2062C250.089 18.1544 249.557 19.4828 248.495 20.1913C247.432 20.8998 245.484 21.254 242.65 21.254H220.776C217.942 21.254 215.994 20.8998 214.931 20.1913C213.868 19.4828 213.337 18.1544 213.337 16.2062V5.04782Z" fill="#414640"/>
<path d="M10.2728 0.177124H0V20.9883H10.2728V0.177124Z" fill="#A43040"/>
<path d="M27.4532 0.177124H12.4868V20.9883H27.4532V0.177124Z" fill="#A43040"/>
<path d="M58.0944 0.177124H30.9956V20.9883H58.0944V0.177124Z" fill="#A43040"/>
<path fill-rule="evenodd" clip-rule="evenodd" d="M104.499 21.254L120.528 0.088562H126.815L143.021 21.254H135.671L123.45 4.07368L111.052 21.254H104.499Z" fill="#414640"/>
<path d="M7.5806 28.5615H3.34323V32.4851H7.5806V31.1537L9.15284 31.4528V32.1859C9.15284 32.7529 9.03567 33.14 8.80132 33.3472C8.57124 33.5505 8.13024 33.6521 7.47834 33.6521H3.44549C2.78933 33.6521 2.3462 33.5505 2.11612 33.3472C1.88604 33.14 1.771 32.7529 1.771 32.1859V28.9193C1.771 28.3562 1.88604 27.9711 2.11612 27.7639C2.3462 27.5567 2.78933 27.4531 3.44549 27.4531H7.47834C8.13024 27.4531 8.57124 27.5567 8.80132 27.7639C9.03567 27.9711 9.15284 28.3562 9.15284 28.9193V29.5057L7.5806 29.7345V28.5615Z" fill="#414640"/>
<path d="M12.2526 28.9193C12.2526 28.3562 12.3676 27.9711 12.5977 27.7639C12.8278 27.5567 13.2709 27.4531 13.9271 27.4531H18.8994C19.5556 27.4531 19.9987 27.5567 20.2288 27.7639C20.4589 27.9711 20.5739 28.3562 20.5739 28.9193V32.1859C20.5739 32.7529 20.4589 33.14 20.2288 33.3472C19.9987 33.5505 19.5556 33.6521 18.8994 33.6521H13.9271C13.2709 33.6521 12.8278 33.5505 12.5977 33.3472C12.3676 33.14 12.2526 32.7529 12.2526 32.1859V28.9193ZM13.8248 32.4851H19.0081V28.5615H13.8248V32.4851Z" fill="#414640"/>
<path d="M23.8718 33.6521V27.4531H24.9455L29.7006 31.1068C29.8625 31.228 30.0052 31.3434 30.1288 31.4528C30.2523 31.5584 30.3652 31.6679 30.4675 31.7813C30.4419 31.4333 30.4249 31.187 30.4164 31.0423C30.4079 30.8976 30.4036 30.7862 30.4036 30.708V27.4531H31.8161V33.6521H30.7423L25.7828 29.8224C25.6635 29.7247 25.5591 29.6367 25.4696 29.5585C25.3801 29.4803 25.297 29.4002 25.2203 29.3181C25.2416 29.5096 25.2565 29.6915 25.2651 29.8635C25.2778 30.0316 25.2842 30.1782 25.2842 30.3034V33.6521H23.8718Z" fill="#414640"/>
<path d="M41.1153 28.538H36.6925V29.8694H40.9043C41.5648 29.8694 42.01 29.973 42.2401 30.1802C42.4745 30.3874 42.5916 30.7725 42.5916 31.3356V32.1859C42.5916 32.749 42.4745 33.1341 42.2401 33.3413C42.01 33.5485 41.5648 33.6521 40.9043 33.6521H36.7309C36.0705 33.6521 35.6231 33.5485 35.3887 33.3413C35.1586 33.1341 35.0436 32.749 35.0436 32.1859V32.0159L36.4305 31.752V32.4851H41.2047V31.0716H36.9929C36.3368 31.0716 35.8936 30.968 35.6636 30.7608C35.4335 30.5536 35.3184 30.1685 35.3184 29.6054V28.9193C35.3184 28.3562 35.4335 27.9711 35.6636 27.7639C35.8936 27.5567 36.3368 27.4531 36.9929 27.4531H40.8276C41.4625 27.4531 41.8992 27.5528 42.1378 27.7522C42.3807 27.9516 42.5021 28.3054 42.5021 28.8137V28.9427L41.1153 29.2418V28.538Z" fill="#414640"/>
<path d="M49.002 28.5615V33.6521H47.4298V28.5615H44.33V27.4531H52.1145V28.5615H49.002Z" fill="#414640"/>
<path d="M59.1193 28.5263H55.5849V30.2506H59.1193C59.392 30.2506 59.5773 30.2154 59.6753 30.145C59.7776 30.0707 59.8287 29.9417 59.8287 29.7579V29.0131C59.8287 28.8332 59.7776 28.7081 59.6753 28.6378C59.5773 28.5635 59.392 28.5263 59.1193 28.5263ZM54.0383 33.6521V27.4531H59.8159C60.3528 27.4531 60.7405 27.5489 60.9791 27.7404C61.222 27.9281 61.3434 28.2331 61.3434 28.6553V30.1098C61.3434 30.5282 61.222 30.8331 60.9791 31.0247C60.7405 31.2163 60.3528 31.3121 59.8159 31.3121H58.9339L62.0528 33.6521H59.7967L57.0741 31.3121H55.5849V33.6521H54.0383Z" fill="#414640"/>
<path d="M66.1049 27.4531V32.4851H70.5851V27.4531H72.1509V32.1859C72.1509 32.7529 72.0359 33.14 71.8058 33.3472C71.5757 33.5505 71.1326 33.6521 70.4764 33.6521H66.2071C65.5552 33.6521 65.1121 33.5505 64.8778 33.3472C64.6477 33.14 64.5326 32.7529 64.5326 32.1859V27.4531H66.1049Z" fill="#414640"/>
<path d="M81.284 28.5615H77.0466V32.4851H81.284V31.1537L82.8562 31.4528V32.1859C82.8562 32.7529 82.739 33.14 82.5047 33.3472C82.2746 33.5505 81.8336 33.6521 81.1817 33.6521H77.1489C76.4927 33.6521 76.0496 33.5505 75.8195 33.3472C75.5894 33.14 75.4744 32.7529 75.4744 32.1859V28.9193C75.4744 28.3562 75.5894 27.9711 75.8195 27.7639C76.0496 27.5567 76.4927 27.4531 77.1489 27.4531H81.1817C81.8336 27.4531 82.2746 27.5567 82.5047 27.7639C82.739 27.9711 82.8562 28.3562 82.8562 28.9193V29.5057L81.284 29.7345V28.5615Z" fill="#414640"/>
<path d="M89.241 28.5615V33.6521H87.6688V28.5615H84.5691V27.4531H92.3535V28.5615H89.241Z" fill="#414640"/>
<path d="M94.1367 28.9193C94.1367 28.3562 94.2517 27.9711 94.4818 27.7639C94.7119 27.5567 95.155 27.4531 95.8112 27.4531H100.784C101.44 27.4531 101.883 27.5567 102.113 27.7639C102.343 27.9711 102.458 28.3562 102.458 28.9193V32.1859C102.458 32.7529 102.343 33.14 102.113 33.3472C101.883 33.5505 101.44 33.6521 100.784 33.6521H95.8112C95.155 33.6521 94.7119 33.5505 94.4818 33.3472C94.2517 33.14 94.1367 32.7529 94.1367 32.1859V28.9193ZM95.7089 32.4851H100.892V28.5615H95.7089V32.4851Z" fill="#414640"/>
<path d="M110.85 28.5263H107.315V30.2506H110.85C111.122 30.2506 111.308 30.2154 111.406 30.145C111.508 30.0707 111.559 29.9417 111.559 29.7579V29.0131C111.559 28.8332 111.508 28.7081 111.406 28.6378C111.308 28.5635 111.122 28.5263 110.85 28.5263ZM105.769 33.6521V27.4531H111.546C112.083 27.4531 112.471 27.5489 112.71 27.7404C112.952 27.9281 113.074 28.2331 113.074 28.6553V30.1098C113.074 30.5282 112.952 30.8331 112.71 31.0247C112.471 31.2163 112.083 31.3121 111.546 31.3121H110.664L113.783 33.6521H111.527L108.805 31.3121H107.315V33.6521H105.769Z" fill="#414640"/>
<path d="M117.522 31.1772H120.481L119.024 28.6553L117.522 31.1772ZM114.499 33.6521L118.321 27.4531H119.836L123.709 33.6521H121.945L121.133 32.2974H116.851L116.065 33.6521H114.499Z" fill="#414640"/>
<path d="M130.963 33.6521V27.4531H137.878V28.5087H132.535V29.8928H135.654V30.9485H132.535V32.4851H137.942V33.6521H130.963Z" fill="#414640"/>
<path d="M145.918 33.6521V27.4531H147.49V33.6521H145.918Z" fill="#414640"/>
<path d="M150.929 33.6521V27.4531H152.003L156.758 31.1068C156.92 31.228 157.062 31.3434 157.186 31.4528C157.31 31.5584 157.422 31.6679 157.525 31.7813C157.499 31.4333 157.482 31.187 157.474 31.0423C157.465 30.8976 157.461 30.7862 157.461 30.708V27.4531H158.873V33.6521H157.799L152.84 29.8224C152.721 29.7247 152.616 29.6367 152.527 29.5585C152.437 29.4803 152.354 29.4002 152.277 29.3181C152.299 29.5096 152.314 29.6915 152.322 29.8635C152.335 30.0316 152.341 30.1782 152.341 30.3034V33.6521H150.929Z" fill="#414640"/>
<path d="M162.305 33.6521V27.4531H163.577L166.76 31.2007L169.872 27.4531H171.132V33.6521H169.674V29.8224C169.674 29.7482 169.679 29.6543 169.687 29.5409C169.7 29.4275 169.715 29.3005 169.732 29.1597C169.647 29.32 169.572 29.453 169.508 29.5585C169.444 29.6602 169.387 29.7442 169.336 29.8107L166.798 32.9073H166.485L163.941 29.799C163.848 29.6817 163.767 29.5722 163.699 29.4706C163.635 29.365 163.581 29.2633 163.539 29.1656C163.552 29.2946 163.56 29.4119 163.564 29.5175C163.573 29.623 163.577 29.7247 163.577 29.8224V33.6521H162.305Z" fill="#414640"/>
<path d="M174.295 28.9193C174.295 28.3562 174.41 27.9711 174.64 27.7639C174.87 27.5567 175.314 27.4531 175.97 27.4531H180.942C181.598 27.4531 182.041 27.5567 182.271 27.7639C182.501 27.9711 182.617 28.3562 182.617 28.9193V32.1859C182.617 32.7529 182.501 33.14 182.271 33.3472C182.041 33.5505 181.598 33.6521 180.942 33.6521H175.97C175.314 33.6521 174.87 33.5505 174.64 33.3472C174.41 33.14 174.295 32.7529 174.295 32.1859V28.9193ZM175.867 32.4851H181.051V28.5615H175.867V32.4851Z" fill="#414640"/>
<path d="M191.059 28.4618H187.474V29.9397H191.059C191.332 29.9397 191.519 29.9065 191.622 29.84C191.728 29.7736 191.782 29.6582 191.782 29.494V28.9075C191.782 28.7472 191.728 28.6338 191.622 28.5674C191.519 28.497 191.332 28.4618 191.059 28.4618ZM191.059 30.9602H187.474V32.5378H191.059C191.358 32.5378 191.558 32.4968 191.66 32.4147C191.767 32.3326 191.82 32.1879 191.82 31.9807V31.5115C191.82 31.3043 191.767 31.1616 191.66 31.0834C191.558 31.0013 191.358 30.9602 191.059 30.9602ZM185.927 33.6521V27.4531H191.718C192.25 27.4531 192.636 27.5489 192.874 27.7404C193.113 27.932 193.232 28.237 193.232 28.6553V29.4119C193.232 29.7091 193.132 29.9476 192.932 30.1274C192.732 30.3034 192.444 30.4128 192.069 30.4558C192.457 30.5028 192.755 30.6298 192.964 30.837C193.177 31.0443 193.283 31.314 193.283 31.6464V32.4381C193.283 32.8487 193.119 33.1536 192.791 33.353C192.463 33.5524 191.965 33.6521 191.296 33.6521H185.927Z" fill="#414640"/>
<path d="M196.319 33.6521V27.4531H197.892V33.6521H196.319Z" fill="#414640"/>
<path d="M201.343 33.6521V27.4531H202.915V32.4851H207.983V33.6521H201.343Z" fill="#414640"/>
<path d="M210.29 33.6521V27.4531H211.863V33.6521H210.29Z" fill="#414640"/>
<path d="M217.046 31.1772H220.005L218.548 28.6553L217.046 31.1772ZM214.023 33.6521L217.845 27.4531H219.36L223.233 33.6521H221.469L220.657 32.2974H216.375L215.589 33.6521H214.023Z" fill="#414640"/>
<path d="M230.493 28.5263H226.959V30.2506H230.493C230.766 30.2506 230.951 30.2154 231.049 30.145C231.151 30.0707 231.202 29.9417 231.202 29.7579V29.0131C231.202 28.8332 231.151 28.7081 231.049 28.6378C230.951 28.5635 230.766 28.5263 230.493 28.5263ZM225.412 33.6521V27.4531H231.19C231.727 27.4531 232.114 27.5489 232.353 27.7404C232.596 27.9281 232.717 28.2331 232.717 28.6553V30.1098C232.717 30.5282 232.596 30.8331 232.353 31.0247C232.114 31.2163 231.727 31.3121 231.19 31.3121H230.308L233.427 33.6521H231.171L228.448 31.3121H226.959V33.6521H225.412Z" fill="#414640"/>
<path d="M235.906 33.6521V27.4531H237.479V33.6521H235.906Z" fill="#414640"/>
<path d="M242.662 31.1772H245.621L244.164 28.6553L242.662 31.1772ZM239.639 33.6521L243.461 27.4531H244.976L248.849 33.6521H247.085L246.273 32.2974H241.991L241.205 33.6521H239.639Z" fill="#414640"/>
</g>
<defs>
<clipPath id="clip0_120_35">
<rect width="250" height="36.8402" fill="white"/>
</clipPath>
</defs>
</svg>
