<svg width="127" height="127" viewBox="0 0 127 127" fill="none" xmlns="http://www.w3.org/2000/svg">
<path d="M126.693 0H0.306641V127H126.693V0Z" fill="#A43040"/>
<path d="M108.901 60.4174L31.2899 21.5776C29.756 20.961 27.9155 21.5776 26.9952 22.8106L10.43 56.1018C10.1232 56.7183 10.1232 57.6431 10.1232 58.5678C10.4299 59.4926 11.0435 60.1091 11.657 60.4174L36.5048 73.0557L34.6642 77.063C34.0507 78.6042 34.6642 80.4538 36.1981 81.3785L36.8116 81.6868L32.8237 88.7766L7.66908 89.0848C5.52174 84.7693 5.21498 81.995 0 81.995V103.264C4.90821 103.264 5.21498 100.49 7.36232 96.4829H34.6642C36.8116 96.4829 38.9589 95.2499 40.186 93.4004L44.4807 85.3858L45.401 86.0023C46.9348 86.6188 48.7754 86.0023 49.6956 84.461L51.843 80.4538L71.1691 90.3178C72.0894 90.9343 73.3164 90.6261 74.2367 90.0096L79.1449 86.6188L82.5193 88.4683C82.8261 88.7766 83.4396 88.7766 83.7464 88.7766C84.0531 88.7766 84.3599 88.7766 84.6667 88.4683C85.5869 88.1601 86.2005 87.5436 86.5072 86.9271L95.0966 69.3567L109.208 65.9659C110.128 65.3494 110.742 64.4246 110.742 63.1916C110.435 61.9586 109.821 60.7256 108.901 60.4174Z" fill="white"/>
</svg>
