<svg width="127" height="127" viewBox="0 0 127 127" fill="none" xmlns="http://www.w3.org/2000/svg">
<path d="M127 0H0V127H127V0Z" fill="#A43040"/>
<path fill-rule="evenodd" clip-rule="evenodd" d="M73.6722 20.9613C65.6577 22.8108 62.8834 30.8253 59.1844 37.6069C56.4101 42.2307 53.9441 46.8545 51.7863 50.8617C45.313 47.471 39.4562 44.0802 32.9829 40.6894C36.3737 35.7574 39.148 26.8181 44.08 22.8108C45.0048 22.1943 46.546 20.9613 47.779 20.9613C51.7863 20.3448 56.4101 20.9613 60.7256 20.9613C65.0412 20.9613 69.3567 20.653 73.6722 20.9613Z" fill="white"/>
<path fill-rule="evenodd" clip-rule="evenodd" d="M89.7016 35.1409C91.8594 34.2161 94.0172 33.2913 96.1749 32.3666C93.0924 38.2234 89.7016 44.0802 86.6191 49.937C79.8376 49.6287 72.7478 49.937 65.9662 49.6287C67.8157 48.3957 69.357 47.1627 71.2065 46.2379C69.0487 41.9224 66.5827 37.9151 64.1167 33.9078C66.5827 28.3593 70.8983 21.5777 78.6046 22.5025C80.1458 22.8108 81.6871 23.4273 82.6118 24.6603C85.0779 27.7428 86.9274 32.0583 89.7016 35.1409Z" fill="white"/>
<path fill-rule="evenodd" clip-rule="evenodd" d="M108.813 67.5074C108.813 68.4321 108.813 69.3569 108.813 70.2816C108.505 70.5899 108.505 71.5146 108.505 71.8229C107.889 73.6724 106.347 75.5219 105.423 77.3714C102.34 82.92 98.9492 88.7768 95.8667 93.7088C97.408 88.4685 95.2502 84.4612 93.0925 81.0705C88.7769 74.2889 84.4614 66.5826 80.4541 60.1093C86.6191 56.4103 92.4759 52.7112 98.641 49.0122C102.032 54.869 106.964 59.801 108.813 67.5074Z" fill="white"/>
<path fill-rule="evenodd" clip-rule="evenodd" d="M74.2889 73.0559C74.9054 74.9054 74.5971 77.3714 74.9054 79.5292C77.0632 79.221 79.5292 79.221 81.9952 79.221C84.153 79.221 87.5437 78.6045 89.085 79.221C90.0098 79.5292 91.551 82.6117 92.1675 83.5365C93.0923 85.386 94.017 87.2355 94.017 89.085C94.6335 93.4006 92.784 97.0996 90.318 98.9491C86.619 101.107 81.0704 99.5656 75.8301 100.799C75.5219 102.956 75.2136 105.422 75.2136 107.888C71.2064 102.648 67.8156 96.7913 64.4248 91.2428C67.5073 85.0778 71.2064 79.221 74.2889 73.0559Z" fill="white"/>
<path fill-rule="evenodd" clip-rule="evenodd" d="M18.187 65.6577C20.0365 61.3422 22.1943 57.6432 24.3521 53.6359C22.8108 51.7864 20.0365 50.5534 19.1118 49.0121C25.2768 48.7039 32.3666 49.0121 38.8399 48.7039C42.2307 54.8689 45.6215 61.0339 48.704 67.199C46.8545 66.2742 45.005 65.0412 42.8472 64.1165C40.9977 67.5072 39.4564 70.2815 37.2987 73.6723C36.6822 74.5971 36.0657 76.1383 35.1409 76.4466C33.9079 76.7548 30.8254 76.4466 28.9758 76.4466C23.4273 75.8301 19.7283 72.7475 18.187 68.1238C18.187 66.8907 18.187 66.2742 18.187 65.6577Z" fill="white"/>
<path fill-rule="evenodd" clip-rule="evenodd" d="M19.4199 74.2888C20.3447 74.5971 20.9612 75.8301 22.1942 76.4466C29.5923 81.0704 45.3131 77.6796 56.4102 78.9126C56.4102 86.0024 56.4102 93.0922 56.4102 100.182C47.1626 99.5655 36.6821 102.032 32.0583 97.0995C30.8253 95.5582 29.9005 93.4005 28.9757 91.551C25.8932 86.0024 22.5024 79.5291 19.4199 74.2888Z" fill="white"/>
</svg>
