<svg width="7" height="8" viewBox="0 0 7 8" fill="none" xmlns="http://www.w3.org/2000/svg">
<path fill-rule="evenodd" clip-rule="evenodd" d="M3.50063 8.00089C3.63324 8.00089 3.76042 7.94822 3.85419 7.85445C3.94795 7.76068 4.00063 7.6335 4.00063 7.50089V1.70789L6.14663 3.85489C6.19312 3.90138 6.24831 3.93826 6.30905 3.96342C6.36979 3.98858 6.43489 4.00152 6.50063 4.00152C6.56638 4.00152 6.63148 3.98858 6.69222 3.96342C6.75295 3.93826 6.80814 3.90138 6.85463 3.85489C6.90112 3.80841 6.938 3.75322 6.96316 3.69248C6.98831 3.63174 7.00126 3.56664 7.00126 3.50089C7.00126 3.43515 6.98831 3.37005 6.96316 3.30931C6.938 3.24857 6.90112 3.19338 6.85463 3.14689L3.85463 0.146894C3.80819 0.10033 3.75301 0.0633875 3.69227 0.0381811C3.63152 0.0129746 3.5664 0 3.50063 0C3.43486 0 3.36974 0.0129746 3.309 0.0381811C3.24825 0.0633875 3.19308 0.10033 3.14663 0.146894L0.146632 3.14689C0.0527451 3.24078 0 3.36812 0 3.50089C0 3.63367 0.0527451 3.76101 0.146632 3.85489C0.240518 3.94878 0.367856 4.00152 0.500632 4.00152C0.633408 4.00152 0.760745 3.94878 0.854632 3.85489L3.00063 1.70789V7.50089C3.00063 7.6335 3.05331 7.76068 3.14708 7.85445C3.24085 7.94822 3.36802 8.00089 3.50063 8.00089Z" fill="white"/>
</svg>
